%TF.GenerationSoftware,KiCad,Pcbnew,(5.1.10)-1*%
%TF.CreationDate,2021-11-14T18:54:03+01:00*%
%TF.ProjectId,RPi_ControllerBoard,5250695f-436f-46e7-9472-6f6c6c657242,01*%
%TF.SameCoordinates,Original*%
%TF.FileFunction,Profile,NP*%
%FSLAX46Y46*%
G04 Gerber Fmt 4.6, Leading zero omitted, Abs format (unit mm)*
G04 Created by KiCad (PCBNEW (5.1.10)-1) date 2021-11-14 18:54:03*
%MOMM*%
%LPD*%
G01*
G04 APERTURE LIST*
%TA.AperFunction,Profile*%
%ADD10C,0.120000*%
%TD*%
%TA.AperFunction,Profile*%
%ADD11C,0.050000*%
%TD*%
%TA.AperFunction,Profile*%
%ADD12C,0.200000*%
%TD*%
G04 APERTURE END LIST*
D10*
X60680000Y-118650000D02*
G75*
G03*
X60680000Y-118650000I-1300000J0D01*
G01*
X83680000Y-118650000D02*
G75*
G03*
X83680000Y-118650000I-1300000J0D01*
G01*
X60680000Y-60650000D02*
G75*
G03*
X60680000Y-60650000I-1300000J0D01*
G01*
X83680000Y-60650000D02*
G75*
G03*
X83680000Y-60650000I-1300000J0D01*
G01*
D11*
X238252000Y-140970000D02*
G75*
G02*
X236728000Y-140970000I-762000J0D01*
G01*
X236728000Y-136144000D02*
G75*
G02*
X238252000Y-136144000I762000J0D01*
G01*
X231648000Y-136144000D02*
G75*
G02*
X233172000Y-136144000I762000J0D01*
G01*
X233172000Y-140970000D02*
G75*
G02*
X231648000Y-140970000I-762000J0D01*
G01*
X231648000Y-140970000D02*
X231648000Y-136144000D01*
X233172000Y-136144000D02*
X233172000Y-140970000D01*
X238252000Y-136144000D02*
X238252000Y-140970000D01*
X236728000Y-140970000D02*
X236728000Y-136144000D01*
X171196000Y-111760000D02*
X171196000Y-115824000D01*
X165100000Y-111760000D02*
X165100000Y-115824000D01*
X166624000Y-111760000D02*
G75*
G02*
X171196000Y-111760000I2286000J0D01*
G01*
X172720000Y-111760000D02*
X172720000Y-115824000D01*
X172720000Y-115824000D02*
G75*
G02*
X171196000Y-115824000I-762000J0D01*
G01*
X166624000Y-115824000D02*
G75*
G02*
X165100000Y-115824000I-762000J0D01*
G01*
X166624000Y-111760000D02*
X166624000Y-115824000D01*
X165100000Y-111760000D02*
G75*
G02*
X172720000Y-111760000I3810000J0D01*
G01*
X187706000Y-111760000D02*
X187706000Y-115824000D01*
X181610000Y-111760000D02*
X181610000Y-115824000D01*
X183134000Y-111760000D02*
G75*
G02*
X187706000Y-111760000I2286000J0D01*
G01*
X189230000Y-111760000D02*
X189230000Y-115824000D01*
X189230000Y-115824000D02*
G75*
G02*
X187706000Y-115824000I-762000J0D01*
G01*
X183134000Y-115824000D02*
G75*
G02*
X181610000Y-115824000I-762000J0D01*
G01*
X183134000Y-111760000D02*
X183134000Y-115824000D01*
X181610000Y-111760000D02*
G75*
G02*
X189230000Y-111760000I3810000J0D01*
G01*
X204216000Y-111760000D02*
X204216000Y-115824000D01*
X198120000Y-111760000D02*
X198120000Y-115824000D01*
X199644000Y-111760000D02*
G75*
G02*
X204216000Y-111760000I2286000J0D01*
G01*
X205740000Y-111760000D02*
X205740000Y-115824000D01*
X205740000Y-115824000D02*
G75*
G02*
X204216000Y-115824000I-762000J0D01*
G01*
X199644000Y-115824000D02*
G75*
G02*
X198120000Y-115824000I-762000J0D01*
G01*
X199644000Y-111760000D02*
X199644000Y-115824000D01*
X198120000Y-111760000D02*
G75*
G02*
X205740000Y-111760000I3810000J0D01*
G01*
X216154000Y-115824000D02*
G75*
G02*
X214630000Y-115824000I-762000J0D01*
G01*
X222250000Y-115824000D02*
G75*
G02*
X220726000Y-115824000I-762000J0D01*
G01*
X222250000Y-111760000D02*
X222250000Y-115824000D01*
X220726000Y-111760000D02*
X220726000Y-115824000D01*
X216154000Y-111760000D02*
X216154000Y-115824000D01*
X214630000Y-111760000D02*
X214630000Y-115824000D01*
X216154000Y-111760000D02*
G75*
G02*
X220726000Y-111760000I2286000J0D01*
G01*
X214630000Y-111760000D02*
G75*
G02*
X222250000Y-111760000I3810000J0D01*
G01*
D12*
X52730000Y-145720000D02*
X52730000Y-45720000D01*
X59480000Y-50720000D02*
G75*
G03*
X59480000Y-50720000I-1750000J0D01*
G01*
X52730000Y-45720000D02*
X252730000Y-45720000D01*
X249480000Y-50720000D02*
G75*
G03*
X249480000Y-50720000I-1750000J0D01*
G01*
X249480000Y-140720000D02*
G75*
G03*
X249480000Y-140720000I-1750000J0D01*
G01*
X59480000Y-140720000D02*
G75*
G03*
X59480000Y-140720000I-1750000J0D01*
G01*
X252730000Y-145720000D02*
X52730000Y-145720000D01*
X252730000Y-45720000D02*
X252730000Y-145720000D01*
M02*
