M48
; DRILL file {KiCad (5.1.10)-1} date 11/14/21 18:54:17
; FORMAT={-:-/ absolute / inch / decimal}
; #@! TF.CreationDate,2021-11-14T18:54:17+01:00
; #@! TF.GenerationSoftware,Kicad,Pcbnew,(5.1.10)-1
; #@! TF.FileFunction,Plated,1,2,PTH
FMAT,2
INCH
T1C0.0157
T2C0.0236
T3C0.0315
T4C0.0394
T5C0.0472
T6C0.0512
%
G90
G05
T1
X2.15Y-2.2
X2.15Y-2.43
X2.15Y-2.69
X2.15Y-2.93
X2.15Y-3.18
X2.15Y-3.44
X2.15Y-3.72
X2.15Y-4.03
X2.15Y-4.32
X2.15Y-4.61
X2.15Y-4.9
X2.15Y-5.2
X2.54Y-1.87
X2.55Y-5.66
X2.74Y-1.87
X2.83Y-5.66
X2.97Y-1.87
X3.01Y-5.66
X3.18Y-1.87
X3.29Y-5.66
X3.37Y-1.87
X3.38Y-3.72
X3.38Y-3.84
X3.4Y-3.53
X3.42Y-3.24
X3.42Y-4.21
X3.44Y-4.44
X3.48Y-5.66
X3.5602Y-3.0002
X3.59Y-1.87
X3.59Y-2.58
X3.6Y-4.45
X3.6Y-4.56
X3.62Y-3.0
X3.7Y-2.38
X3.7Y-2.79
X3.7Y-3.05
X3.7Y-3.28
X3.7Y-3.56
X3.7Y-3.9
X3.7Y-4.04
X3.74Y-4.73
X3.75Y-5.66
X3.91Y-4.73
X3.94Y-5.66
X4.18Y-4.73
X4.21Y-5.66
X4.4Y-5.66
X4.46Y-4.73
X4.69Y-5.66
X4.78Y-4.73
X4.86Y-5.66
X5.09Y-4.73
X5.14Y-5.66
X5.35Y-4.73
X5.35Y-4.92
X5.35Y-5.05
X5.35Y-5.27
X5.35Y-5.45
X5.35Y-5.66
X5.65Y-5.05
X5.65Y-5.19
X5.65Y-5.27
X5.66Y-4.73
X5.66Y-4.79
X5.68Y-5.34
X5.68Y-5.66
X5.7Y-4.84
X5.74Y-4.79
X5.82Y-5.34
X5.82Y-5.66
X5.85Y-5.05
X5.85Y-5.19
X5.85Y-5.27
X5.86Y-4.73
X5.86Y-4.79
X5.9Y-4.84
X5.94Y-4.79
X6.07Y-4.73
X6.07Y-4.79
X6.07Y-4.84
X6.07Y-5.05
X6.07Y-5.19
X6.07Y-5.27
T2
X2.74Y-3.1
X6.69Y-3.4
X6.69Y-3.75
X6.72Y-4.01
X6.76Y-2.88
X6.79Y-2.38
X7.34Y-3.75
X7.35Y-2.68
X7.35Y-3.4
X7.37Y-4.01
X7.99Y-3.4
X7.99Y-3.75
X8.02Y-4.01
X8.64Y-3.4
X8.64Y-3.75
X8.6706Y-4.0106
T3
X4.66Y-3.25
X4.77Y-3.81
X4.82Y-2.6
X4.82Y-2.9
X4.92Y-2.6
X4.92Y-2.9
X5.21Y-2.4
X5.21Y-2.7
X5.41Y-2.4
X5.41Y-2.7
X5.68Y-2.6
X5.68Y-2.9
X5.78Y-2.6
X5.78Y-2.9
X6.5Y-4.2
X6.8Y-3.4
X6.8Y-3.7
X6.8Y-4.2
X6.9Y-3.4
X6.9Y-3.7
X6.91Y-2.63
X6.91Y-2.93
X7.01Y-2.63
X7.01Y-2.93
X7.11Y-2.63
X7.11Y-2.93
X7.15Y-4.2
X7.21Y-2.63
X7.21Y-2.93
X7.45Y-3.4
X7.45Y-3.7
X7.45Y-4.2
X7.55Y-3.4
X7.55Y-3.7
X7.8Y-4.2
X8.1Y-3.4
X8.1Y-3.7
X8.1Y-4.2
X8.2Y-3.4
X8.2Y-3.7
X8.45Y-4.2
X8.75Y-3.4
X8.75Y-3.7
X8.75Y-4.2
X8.85Y-3.4
X8.85Y-3.7
T4
X3.1933Y-2.5795
X3.1933Y-2.6795
X3.1933Y-2.7795
X3.1933Y-2.8795
X3.1933Y-2.9795
X3.1933Y-3.0795
X3.1933Y-3.1795
X3.1933Y-3.2795
X3.1933Y-3.3795
X3.1933Y-3.4795
X3.1933Y-3.5795
X3.1933Y-3.6795
X3.1933Y-3.7795
X3.1933Y-3.8795
X3.1933Y-3.9795
X3.1933Y-4.0795
X3.1933Y-4.1795
X3.1933Y-4.2795
X3.1933Y-4.3795
X3.1933Y-4.4795
X3.2933Y-2.5795
X3.2933Y-2.6795
X3.2933Y-2.7795
X3.2933Y-2.8795
X3.2933Y-2.9795
X3.2933Y-3.0795
X3.2933Y-3.1795
X3.2933Y-3.2795
X3.2933Y-3.3795
X3.2933Y-3.4795
X3.2933Y-3.5795
X3.2933Y-3.6795
X3.2933Y-3.7795
X3.2933Y-3.8795
X3.2933Y-3.9795
X3.2933Y-4.0795
X3.2933Y-4.1795
X3.2933Y-4.2795
X3.2933Y-4.3795
X3.2933Y-4.4795
X3.69Y-2.05
X3.69Y-2.15
X3.85Y-2.4946
X3.85Y-4.0654
X4.55Y-2.4946
X4.55Y-4.0654
X7.41Y-1.91
X7.41Y-2.01
T5
X2.55Y-5.45
X2.6878Y-5.45
X2.8256Y-5.45
X3.0122Y-5.45
X3.15Y-5.45
X3.2878Y-5.45
X3.475Y-5.45
X3.6128Y-5.45
X3.7506Y-5.45
X3.9372Y-5.45
X4.075Y-5.45
X4.2128Y-5.45
X4.4Y-5.45
X4.5378Y-5.45
X4.6756Y-5.45
X4.8632Y-5.45
X5.001Y-5.45
X5.1388Y-5.45
X5.6122Y-5.45
X5.75Y-5.45
X5.8878Y-5.45
X6.0256Y-5.45
T6
X4.1Y-2.11
X4.3Y-2.11
X5.21Y-2.11
X5.41Y-2.11
X5.61Y-2.11
X6.4138Y-4.4787
X6.4138Y-4.9591
X6.45Y-5.45
X6.65Y-4.4
X6.65Y-5.45
X6.76Y-2.09
X6.85Y-5.45
X6.8862Y-4.4787
X6.8862Y-4.9591
X6.96Y-2.09
X7.0638Y-4.4787
X7.0638Y-4.9591
X7.1Y-5.45
X7.16Y-2.09
X7.3Y-4.4
X7.3Y-5.45
X7.5Y-5.45
X7.5362Y-4.4787
X7.5362Y-4.9591
X7.7138Y-4.4787
X7.7138Y-4.9591
X7.75Y-5.45
X7.95Y-4.4
X7.95Y-5.45
X8.15Y-5.45
X8.1862Y-4.4787
X8.1862Y-4.9591
X8.3638Y-4.4787
X8.3638Y-4.9591
X8.4Y-5.45
X8.6Y-4.4
X8.6Y-5.45
X8.8Y-5.45
X8.8362Y-4.4787
X8.8362Y-4.9591
X9.05Y-5.45
X9.25Y-5.45
X9.45Y-5.45
T0
M30
