%TF.GenerationSoftware,KiCad,Pcbnew,(5.1.10)-1*%
%TF.CreationDate,2021-11-14T18:54:03+01:00*%
%TF.ProjectId,RPi_ControllerBoard,5250695f-436f-46e7-9472-6f6c6c657242,01*%
%TF.SameCoordinates,Original*%
%TF.FileFunction,Soldermask,Bot*%
%TF.FilePolarity,Negative*%
%FSLAX46Y46*%
G04 Gerber Fmt 4.6, Leading zero omitted, Abs format (unit mm)*
G04 Created by KiCad (PCBNEW (5.1.10)-1) date 2021-11-14 18:54:03*
%MOMM*%
%LPD*%
G01*
G04 APERTURE LIST*
%ADD10O,1.600000X1.600000*%
%ADD11R,1.600000X1.600000*%
%ADD12R,2.600000X2.600000*%
%ADD13C,2.600000*%
%ADD14C,2.300000*%
%ADD15R,2.300000X2.300000*%
%ADD16R,1.700000X1.700000*%
%ADD17O,1.700000X1.700000*%
%ADD18C,3.000000*%
%ADD19R,2.800000X2.800000*%
%ADD20R,1.800000X1.800000*%
%ADD21C,1.800000*%
%ADD22R,1.600000X2.400000*%
%ADD23O,1.600000X2.400000*%
G04 APERTURE END LIST*
%TO.C,C2*%
G36*
G01*
X132809000Y-64320000D02*
X131859000Y-64320000D01*
G75*
G02*
X131609000Y-64070000I0J250000D01*
G01*
X131609000Y-63570000D01*
G75*
G02*
X131859000Y-63320000I250000J0D01*
G01*
X132809000Y-63320000D01*
G75*
G02*
X133059000Y-63570000I0J-250000D01*
G01*
X133059000Y-64070000D01*
G75*
G02*
X132809000Y-64320000I-250000J0D01*
G01*
G37*
G36*
G01*
X132809000Y-66220000D02*
X131859000Y-66220000D01*
G75*
G02*
X131609000Y-65970000I0J250000D01*
G01*
X131609000Y-65470000D01*
G75*
G02*
X131859000Y-65220000I250000J0D01*
G01*
X132809000Y-65220000D01*
G75*
G02*
X133059000Y-65470000I0J-250000D01*
G01*
X133059000Y-65970000D01*
G75*
G02*
X132809000Y-66220000I-250000J0D01*
G01*
G37*
%TD*%
%TO.C,C4*%
G36*
G01*
X137889000Y-66220000D02*
X136939000Y-66220000D01*
G75*
G02*
X136689000Y-65970000I0J250000D01*
G01*
X136689000Y-65470000D01*
G75*
G02*
X136939000Y-65220000I250000J0D01*
G01*
X137889000Y-65220000D01*
G75*
G02*
X138139000Y-65470000I0J-250000D01*
G01*
X138139000Y-65970000D01*
G75*
G02*
X137889000Y-66220000I-250000J0D01*
G01*
G37*
G36*
G01*
X137889000Y-64320000D02*
X136939000Y-64320000D01*
G75*
G02*
X136689000Y-64070000I0J250000D01*
G01*
X136689000Y-63570000D01*
G75*
G02*
X136939000Y-63320000I250000J0D01*
G01*
X137889000Y-63320000D01*
G75*
G02*
X138139000Y-63570000I0J-250000D01*
G01*
X138139000Y-64070000D01*
G75*
G02*
X137889000Y-64320000I-250000J0D01*
G01*
G37*
%TD*%
D10*
%TO.C,D2*%
X132334000Y-68580000D03*
D11*
X132334000Y-60960000D03*
%TD*%
%TO.C,D3*%
X137414000Y-60960000D03*
D10*
X137414000Y-68580000D03*
%TD*%
D11*
%TO.C,D10*%
X165100000Y-106680000D03*
D10*
X172720000Y-106680000D03*
%TD*%
%TO.C,D11*%
X189230000Y-106680000D03*
D11*
X181610000Y-106680000D03*
%TD*%
D10*
%TO.C,D12*%
X205740000Y-106680000D03*
D11*
X198120000Y-106680000D03*
%TD*%
%TO.C,D13*%
X214630000Y-106680000D03*
D10*
X222250000Y-106680000D03*
%TD*%
D12*
%TO.C,J1*%
X104140000Y-53594000D03*
D13*
X109220000Y-53594000D03*
%TD*%
D14*
%TO.C,J2*%
X71770000Y-138430000D03*
X68270000Y-138430000D03*
D15*
X64770000Y-138430000D03*
%TD*%
%TO.C,J3*%
X76510000Y-138430000D03*
D14*
X80010000Y-138430000D03*
X83510000Y-138430000D03*
%TD*%
%TO.C,J4*%
X95265000Y-138430000D03*
X91765000Y-138430000D03*
D15*
X88265000Y-138430000D03*
%TD*%
%TO.C,J5*%
X100005000Y-138430000D03*
D14*
X103505000Y-138430000D03*
X107005000Y-138430000D03*
%TD*%
D15*
%TO.C,J6*%
X111760000Y-138430000D03*
D14*
X115260000Y-138430000D03*
X118760000Y-138430000D03*
%TD*%
D12*
%TO.C,J7*%
X132334000Y-53594000D03*
D13*
X137414000Y-53594000D03*
X142494000Y-53594000D03*
%TD*%
D14*
%TO.C,J8*%
X130525000Y-138430000D03*
X127025000Y-138430000D03*
D15*
X123525000Y-138430000D03*
%TD*%
D16*
%TO.C,J9*%
X93726000Y-54610000D03*
D17*
X93726000Y-52070000D03*
%TD*%
D15*
%TO.C,J10*%
X142550000Y-138430000D03*
D14*
X146050000Y-138430000D03*
X149550000Y-138430000D03*
X153050000Y-138430000D03*
%TD*%
D13*
%TO.C,J11*%
X173990000Y-138430000D03*
X168910000Y-138430000D03*
D12*
X163830000Y-138430000D03*
%TD*%
%TO.C,J12*%
X180340000Y-138430000D03*
D13*
X185420000Y-138430000D03*
X190500000Y-138430000D03*
%TD*%
%TO.C,J13*%
X207010000Y-138430000D03*
X201930000Y-138430000D03*
D12*
X196850000Y-138430000D03*
%TD*%
%TO.C,J14*%
X213360000Y-138430000D03*
D13*
X218440000Y-138430000D03*
X223520000Y-138430000D03*
%TD*%
%TO.C,J15*%
X240030000Y-138430000D03*
X234950000Y-138430000D03*
D12*
X229870000Y-138430000D03*
%TD*%
D18*
%TO.C,K1*%
X168910000Y-111760000D03*
X174910000Y-113760000D03*
X174910000Y-125960000D03*
X162910000Y-125960000D03*
X162910000Y-113760000D03*
%TD*%
%TO.C,K2*%
X185420000Y-111760000D03*
X191420000Y-113760000D03*
X191420000Y-125960000D03*
X179420000Y-125960000D03*
X179420000Y-113760000D03*
%TD*%
%TO.C,K3*%
X195930000Y-113760000D03*
X195930000Y-125960000D03*
X207930000Y-125960000D03*
X207930000Y-113760000D03*
X201930000Y-111760000D03*
%TD*%
%TO.C,K4*%
X212440000Y-113760000D03*
X212440000Y-125960000D03*
X224440000Y-125960000D03*
X224440000Y-113760000D03*
X218440000Y-111760000D03*
%TD*%
%TO.C,R3*%
G36*
G01*
X132784001Y-57512000D02*
X131883999Y-57512000D01*
G75*
G02*
X131634000Y-57262001I0J249999D01*
G01*
X131634000Y-56736999D01*
G75*
G02*
X131883999Y-56487000I249999J0D01*
G01*
X132784001Y-56487000D01*
G75*
G02*
X133034000Y-56736999I0J-249999D01*
G01*
X133034000Y-57262001D01*
G75*
G02*
X132784001Y-57512000I-249999J0D01*
G01*
G37*
G36*
G01*
X132784001Y-59337000D02*
X131883999Y-59337000D01*
G75*
G02*
X131634000Y-59087001I0J249999D01*
G01*
X131634000Y-58561999D01*
G75*
G02*
X131883999Y-58312000I249999J0D01*
G01*
X132784001Y-58312000D01*
G75*
G02*
X133034000Y-58561999I0J-249999D01*
G01*
X133034000Y-59087001D01*
G75*
G02*
X132784001Y-59337000I-249999J0D01*
G01*
G37*
%TD*%
%TO.C,R4*%
G36*
G01*
X137864001Y-59337000D02*
X136963999Y-59337000D01*
G75*
G02*
X136714000Y-59087001I0J249999D01*
G01*
X136714000Y-58561999D01*
G75*
G02*
X136963999Y-58312000I249999J0D01*
G01*
X137864001Y-58312000D01*
G75*
G02*
X138114000Y-58561999I0J-249999D01*
G01*
X138114000Y-59087001D01*
G75*
G02*
X137864001Y-59337000I-249999J0D01*
G01*
G37*
G36*
G01*
X137864001Y-57512000D02*
X136963999Y-57512000D01*
G75*
G02*
X136714000Y-57262001I0J249999D01*
G01*
X136714000Y-56736999D01*
G75*
G02*
X136963999Y-56487000I249999J0D01*
G01*
X137864001Y-56487000D01*
G75*
G02*
X138114000Y-56736999I0J-249999D01*
G01*
X138114000Y-57262001D01*
G75*
G02*
X137864001Y-57512000I-249999J0D01*
G01*
G37*
%TD*%
%TO.C,R7*%
G36*
G01*
X129089999Y-63345000D02*
X129990001Y-63345000D01*
G75*
G02*
X130240000Y-63594999I0J-249999D01*
G01*
X130240000Y-64120001D01*
G75*
G02*
X129990001Y-64370000I-249999J0D01*
G01*
X129089999Y-64370000D01*
G75*
G02*
X128840000Y-64120001I0J249999D01*
G01*
X128840000Y-63594999D01*
G75*
G02*
X129089999Y-63345000I249999J0D01*
G01*
G37*
G36*
G01*
X129089999Y-65170000D02*
X129990001Y-65170000D01*
G75*
G02*
X130240000Y-65419999I0J-249999D01*
G01*
X130240000Y-65945001D01*
G75*
G02*
X129990001Y-66195000I-249999J0D01*
G01*
X129089999Y-66195000D01*
G75*
G02*
X128840000Y-65945001I0J249999D01*
G01*
X128840000Y-65419999D01*
G75*
G02*
X129089999Y-65170000I249999J0D01*
G01*
G37*
%TD*%
%TO.C,R8*%
G36*
G01*
X139757999Y-65170000D02*
X140658001Y-65170000D01*
G75*
G02*
X140908000Y-65419999I0J-249999D01*
G01*
X140908000Y-65945001D01*
G75*
G02*
X140658001Y-66195000I-249999J0D01*
G01*
X139757999Y-66195000D01*
G75*
G02*
X139508000Y-65945001I0J249999D01*
G01*
X139508000Y-65419999D01*
G75*
G02*
X139757999Y-65170000I249999J0D01*
G01*
G37*
G36*
G01*
X139757999Y-63345000D02*
X140658001Y-63345000D01*
G75*
G02*
X140908000Y-63594999I0J-249999D01*
G01*
X140908000Y-64120001D01*
G75*
G02*
X140658001Y-64370000I-249999J0D01*
G01*
X139757999Y-64370000D01*
G75*
G02*
X139508000Y-64120001I0J249999D01*
G01*
X139508000Y-63594999D01*
G75*
G02*
X139757999Y-63345000I249999J0D01*
G01*
G37*
%TD*%
D19*
%TO.C,U1*%
X115570000Y-63362000D03*
X97790000Y-63362000D03*
X115570000Y-103262000D03*
X97790000Y-103262000D03*
%TD*%
D20*
%TO.C,U2*%
X81110000Y-65520000D03*
D21*
X83650000Y-65520000D03*
X81110000Y-68060000D03*
X83650000Y-68060000D03*
X81110000Y-70600000D03*
X83650000Y-70600000D03*
X81110000Y-73140000D03*
X83650000Y-73140000D03*
X81110000Y-75680000D03*
X83650000Y-75680000D03*
X81110000Y-78220000D03*
X83650000Y-78220000D03*
X81110000Y-80760000D03*
X83650000Y-80760000D03*
X81110000Y-83300000D03*
X83650000Y-83300000D03*
X81110000Y-85840000D03*
X83650000Y-85840000D03*
X81110000Y-88380000D03*
X83650000Y-88380000D03*
X81110000Y-90920000D03*
X83650000Y-90920000D03*
X81110000Y-93460000D03*
X83650000Y-93460000D03*
X81110000Y-96000000D03*
X83650000Y-96000000D03*
X81110000Y-98540000D03*
X83650000Y-98540000D03*
X81110000Y-101080000D03*
X83650000Y-101080000D03*
X81110000Y-103620000D03*
X83650000Y-103620000D03*
X81110000Y-106160000D03*
X83650000Y-106160000D03*
X81110000Y-108700000D03*
X83650000Y-108700000D03*
X81110000Y-111240000D03*
X83650000Y-111240000D03*
X81110000Y-113780000D03*
X83650000Y-113780000D03*
%TD*%
D10*
%TO.C,U3*%
X124968000Y-73660000D03*
X122428000Y-66040000D03*
X122428000Y-73660000D03*
D11*
X124968000Y-66040000D03*
%TD*%
%TO.C,U4*%
X146812000Y-66040000D03*
D10*
X144272000Y-73660000D03*
X144272000Y-66040000D03*
X146812000Y-73660000D03*
%TD*%
D11*
%TO.C,U5*%
X175260000Y-86360000D03*
D10*
X172720000Y-93980000D03*
X172720000Y-86360000D03*
X175260000Y-93980000D03*
%TD*%
%TO.C,U6*%
X191770000Y-93980000D03*
X189230000Y-86360000D03*
X189230000Y-93980000D03*
D11*
X191770000Y-86360000D03*
%TD*%
D10*
%TO.C,U7*%
X208280000Y-93980000D03*
X205740000Y-86360000D03*
X205740000Y-93980000D03*
D11*
X208280000Y-86360000D03*
%TD*%
%TO.C,U8*%
X224790000Y-86360000D03*
D10*
X222250000Y-93980000D03*
X222250000Y-86360000D03*
X224790000Y-93980000D03*
%TD*%
D16*
%TO.C,J16*%
X188214000Y-51054000D03*
D17*
X188214000Y-48514000D03*
%TD*%
D12*
%TO.C,J17*%
X181864000Y-53086000D03*
D13*
X176784000Y-53086000D03*
X171704000Y-53086000D03*
%TD*%
%TO.C,R6*%
G36*
G01*
X174343000Y-60902001D02*
X174343000Y-60001999D01*
G75*
G02*
X174592999Y-59752000I249999J0D01*
G01*
X175118001Y-59752000D01*
G75*
G02*
X175368000Y-60001999I0J-249999D01*
G01*
X175368000Y-60902001D01*
G75*
G02*
X175118001Y-61152000I-249999J0D01*
G01*
X174592999Y-61152000D01*
G75*
G02*
X174343000Y-60902001I0J249999D01*
G01*
G37*
G36*
G01*
X176168000Y-60902001D02*
X176168000Y-60001999D01*
G75*
G02*
X176417999Y-59752000I249999J0D01*
G01*
X176943001Y-59752000D01*
G75*
G02*
X177193000Y-60001999I0J-249999D01*
G01*
X177193000Y-60902001D01*
G75*
G02*
X176943001Y-61152000I-249999J0D01*
G01*
X176417999Y-61152000D01*
G75*
G02*
X176168000Y-60902001I0J249999D01*
G01*
G37*
%TD*%
%TO.C,R10*%
G36*
G01*
X175368000Y-63049999D02*
X175368000Y-63950001D01*
G75*
G02*
X175118001Y-64200000I-249999J0D01*
G01*
X174592999Y-64200000D01*
G75*
G02*
X174343000Y-63950001I0J249999D01*
G01*
X174343000Y-63049999D01*
G75*
G02*
X174592999Y-62800000I249999J0D01*
G01*
X175118001Y-62800000D01*
G75*
G02*
X175368000Y-63049999I0J-249999D01*
G01*
G37*
G36*
G01*
X177193000Y-63049999D02*
X177193000Y-63950001D01*
G75*
G02*
X176943001Y-64200000I-249999J0D01*
G01*
X176417999Y-64200000D01*
G75*
G02*
X176168000Y-63950001I0J249999D01*
G01*
X176168000Y-63049999D01*
G75*
G02*
X176417999Y-62800000I249999J0D01*
G01*
X176943001Y-62800000D01*
G75*
G02*
X177193000Y-63049999I0J-249999D01*
G01*
G37*
%TD*%
D22*
%TO.C,U9*%
X175514000Y-74422000D03*
D23*
X183134000Y-66802000D03*
X178054000Y-74422000D03*
X180594000Y-66802000D03*
X180594000Y-74422000D03*
X178054000Y-66802000D03*
X183134000Y-74422000D03*
X175514000Y-66802000D03*
%TD*%
M02*
